<svg xmlns="http://www.w3.org/2000/svg" width="320" height="80" viewBox="0 0 320 80">
  <path fill="#121621" d="M320,78 C317.565683,77.6141742 315.73235,77.1141742 314.5,76.5 C312.979047,75.7419928 310.682427,74.1837208 307.610139,71.8251839 L306.390361,71.0372792 L305.535546,70.4759324 L304.818979,69.9947417 L304.268986,69.6111008 L300.065868,73.3710308 L297.951359,75.2467619 L296.974004,76.1023857 L296.095529,76.8600417 L295.497407,77.3665916 L294.948105,77.8222878 L294.444709,78.2289533 L293.984306,78.5884108 L293.56398,78.9024834 L293.30459,79.0875513 L293.060853,79.2537983 L292.722711,79.4690612 L292.514331,79.590619 L292.318584,79.6952462 L292.225178,79.7413797 L292.046759,79.8216238 C291.556486,80.0266552 291.192329,80.0440742 290.865915,79.9291626 L290.724076,79.8700566 L290.557959,79.7779491 L290.393552,79.6644574 L290.25575,79.5548608 L290.029318,79.353884 L289.316937,78.6710847 L289.004767,78.3883077 L288.834389,78.2423174 L288.558525,78.0190986 L288.359826,77.8682516 L288.148288,77.7164071 L287.805019,77.4879515 L287.411801,77.2435164 L285.717605,76.2132151 L285.133652,75.8489602 C283.469128,74.7938642 281.727367,73.5253023 280.104646,71.5939364 L278.789198,72.5196442 L277.977453,73.1046572 L277.215411,73.6640666 L276.500954,74.1979556 L275.831961,74.706407 L275.206314,75.189504 L274.344481,75.8667916 L273.327299,76.6818761 L271.681686,78.0129399 L271.176359,78.4101278 L270.720876,78.7521363 L270.441379,78.9496253 C268.997558,79.9379821 268.272857,79.8888341 266.820507,78.8588662 L266.539311,78.6542671 L266.080904,78.3044476 L264.149473,76.7697757 L263.421471,76.1998714 L262.891418,75.7921171 L262.323117,75.3622052 L261.71445,74.9102187 L261.063298,74.4362407 L260.36754,73.9403541 L259.625057,73.422642 L258.833731,72.8831875 L258.797412,72.8505482 L256.601916,71.120348 L256.134024,70.7621101 L255.71351,70.451172 L255.335761,70.1867923 L255.105409,70.0360386 L254.890648,69.9054282 L254.690109,69.7947413 C253.979206,69.4251474 253.527574,69.4529135 253.032018,69.8292967 L252.89555,69.9405535 L252.755537,70.0688773 L252.610613,70.2140485 L252.45941,70.3758473 L252.300562,70.5540539 L251.764481,71.1849241 L251.343811,71.6835153 L250.859759,72.2424646 L250.448548,72.7002291 L250.148905,73.0233518 L249.827266,73.3605753 L249.482264,73.7116798 L249.112533,74.0764456 L248.716705,74.454653 L248.293415,74.8460822 L248.071043,75.0466864 L247.603995,75.4575364 L247.106068,75.8810589 L246.575893,76.3170342 L246.298286,76.539623 L245.717178,76.9938655 L245.100407,77.4600115 L244.624942,77.8104756 L244.340419,78.0287229 L243.963817,78.3352518 L243.639596,78.6144013 L243.077161,79.1105868 L242.943842,79.2209196 L242.817538,79.3176005 L242.696303,79.400042 C242.298474,79.6504616 241.952716,79.6537616 241.334871,79.3119945 L241.141031,79.1990143 L240.92892,79.0647425 L240.696594,78.9085912 L240.442108,78.7299729 L240.014574,78.418634 L236.823914,76.0071512 L235.335308,74.9015662 L234.285457,74.1380587 L233.515578,73.5642567 L232.835864,73.0463707 L231.25626,71.8249252 L230.879626,71.5446917 L230.618249,71.3603009 L230.380067,71.2043781 L230.232627,71.1161831 L230.093191,71.0405476 L229.960836,70.9774343 L229.834639,70.9268061 L229.713678,70.8886258 L229.59703,70.8628561 C229.443966,70.8367539 229.299945,70.8436477 229.155128,70.8831409 L229.046213,70.918867 L228.908245,70.980659 L228.737629,71.079844 L228.589123,71.1832751 L228.464882,71.2795672 L228.334808,71.3878609 L228.053473,71.6403044 L226.631871,73.0081228 L226.121429,73.4838281 L225.693425,73.8709075 L225.223245,74.2838191 L224.884822,74.5733828 L224.525348,74.8743346 L224.143901,75.1866372 L223.739557,75.5102534 L223.311395,75.8451462 L222.858492,76.1912782 L222.379926,76.5486123 L221.874774,76.9171114 L221.342115,77.2967382 L220.781025,77.6874555 L220.190583,78.0892262 L219.569866,78.502013 L218.580008,79.1417672 L217.931345,78.539754 L217.203241,77.8474734 L216.132396,76.8092615 L214.678457,75.3750864 L213.155153,73.8524562 L210.270177,70.9320751 L205.844093,66.3961329 L205.803788,66.3348991 L205.736309,66.2112933 L205.595212,65.8961329 L205.551216,65.8215566 L205.513935,65.7770047 L205.486112,65.7535789 L205.455336,65.7357062 L205.411958,65.7218704 L205.362224,65.7183169 L205.31721,65.7234768 L205.267014,65.7362451 L205.180919,65.7706619 L205.043362,65.8474425 L204.920955,65.9301945 L204.82926,65.9982028 L204.619423,66.1670916 L204.371021,66.3828542 L204.157027,66.5776349 L203.8316,66.8842181 L203.140697,67.5599027 L202.411826,68.2926483 L201.051324,69.6858486 L194.767218,76.2238478 L194.491795,76.4964539 L194.336418,76.6347016 C193.995529,76.9181037 193.793072,76.9312353 193.452666,76.7572691 L193.297526,76.6714997 L193.12066,76.5642752 L192.682409,76.2912809 L192.411355,76.1284209 L191.995406,75.8905925 L191.468381,75.6010013 L190.940696,75.3214335 L190.405764,75.0458412 L188.061793,73.8622704 L187.391796,73.5158381 L186.487747,73.0366509 L185.90488,72.7199912 C184.494729,71.9546003 183.455691,71.2184771 182.652031,70.5568056 L182.32162,70.2779221 L182.017657,70.0089456 L181.737766,69.7506664 L181.357873,69.385034 L180.522566,68.5566659 L180.341273,68.3871851 L180.166246,68.2343296 C179.274031,67.4888858 178.537599,67.4407942 176.483288,68.5806084 L176.068827,68.8161827 L175.619079,69.0822141 L175.13167,69.3794931 L174.604225,69.70881 L174.034369,70.0709552 L173.419729,70.4667192 L170.881528,72.1280515 L167.142748,74.5863251 L164.893053,76.0543226 C162.323232,77.7112769 160.688761,78.5271737 159.98964,78.502013 C159.290519,78.4768523 158.16231,78.1114223 156.605012,77.4057228 L155.49376,76.7435446 L153.100329,75.2780224 L151.468339,74.2638586 L149.222694,72.8522842 L147.610139,71.8251839 L146.390361,71.0372792 L145.535546,70.4759324 L144.818979,69.9947417 L144.268986,69.6111008 L140.065868,73.3710308 L137.951359,75.2467619 L136.974004,76.1023857 L136.095529,76.8600417 L135.497407,77.3665916 L134.948105,77.8222878 L134.444709,78.2289533 L133.984306,78.5884108 L133.56398,78.9024834 L133.30459,79.0875513 L133.060853,79.2537983 L132.722711,79.4690612 L132.514331,79.590619 L132.318584,79.6952462 L132.225178,79.7413797 L132.046759,79.8216238 C131.556486,80.0266552 131.192329,80.0440742 130.865915,79.9291626 L130.724076,79.8700566 L130.557959,79.7779491 L130.393552,79.6644574 L130.25575,79.5548608 L130.029318,79.353884 L129.316937,78.6710847 L129.004767,78.3883077 L128.834389,78.2423174 L128.558525,78.0190986 L128.359826,77.8682516 L128.148288,77.7164071 L127.805019,77.4879515 L127.411801,77.2435164 L125.717605,76.2132151 L125.133652,75.8489602 C123.469128,74.7938642 121.727367,73.5253023 120.104646,71.5939364 L118.789198,72.5196442 L117.977453,73.1046572 L117.215411,73.6640666 L116.500954,74.1979556 L115.831961,74.706407 L115.206314,75.189504 L114.344481,75.8667916 L113.327299,76.6818761 L111.681686,78.0129399 L111.176359,78.4101278 L110.720876,78.7521363 L110.441379,78.9496253 C108.997558,79.9379821 108.272857,79.8888341 106.820507,78.8588662 L106.539311,78.6542671 L106.080904,78.3044476 L104.149473,76.7697757 L103.421471,76.1998714 L102.891418,75.7921171 L102.323117,75.3622052 L101.71445,74.9102187 L101.063298,74.4362407 L100.36754,73.9403541 L99.6250572,73.422642 L98.833731,72.8831875 L98.7974119,72.8505482 L96.6019156,71.120348 L96.1340235,70.7621101 L95.7135097,70.451172 L95.3357612,70.1867923 L95.1054094,70.0360386 L94.8906476,69.9054282 L94.690109,69.7947413 C93.9792059,69.4251474 93.5275735,69.4529135 93.0320184,69.8292967 L92.8955502,69.9405535 L92.7555373,70.0688773 L92.6106128,70.2140485 L92.4594101,70.3758473 L92.3005623,70.5540539 L91.7644812,71.1849241 L91.3438114,71.6835153 L90.859759,72.2424646 L90.4485475,72.7002291 L90.1489047,73.0233518 L89.8272658,73.3605753 L89.4822641,73.7116798 L89.1125328,74.0764456 L88.7167052,74.454653 L88.2934146,74.8460822 L88.0710435,75.0466864 L87.6039955,75.4575364 L87.1060675,75.8810589 L86.5758928,76.3170342 L86.2982858,76.539623 L85.7171782,76.9938655 L85.100407,77.4600115 L84.624942,77.8104756 L84.3404185,78.0287229 L83.963817,78.3352518 L83.6395963,78.6144013 L83.077161,79.1105868 L82.9438424,79.2209196 L82.817538,79.3176005 L82.6963029,79.400042 C82.2984736,79.6504616 81.9527163,79.6537616 81.3348709,79.3119945 L81.1410305,79.1990143 L80.9289199,79.0647425 L80.6965941,78.9085912 L80.4421081,78.7299729 L80.0145742,78.418634 L76.823914,76.0071512 L75.3353079,74.9015662 L74.2854567,74.1380587 L73.515578,73.5642567 L72.8358643,73.0463707 L71.2562596,71.8249252 L70.8796256,71.5446917 L70.6182485,71.3603009 L70.3800666,71.2043781 L70.2326275,71.1161831 L70.0931914,71.0405476 L69.960836,70.9774343 L69.8346389,70.9268061 L69.7136777,70.8886258 L69.5970301,70.8628561 C69.4439658,70.8367539 69.2999447,70.8436477 69.1551283,70.8831409 L69.0462132,70.918867 L68.9082448,70.980659 L68.7376288,71.079844 L68.5891234,71.1832751 L68.4648818,71.2795672 L68.3348078,71.3878609 L68.0534732,71.6403044 L66.6318711,73.0081228 L66.1214287,73.4838281 L65.6934254,73.8709075 L65.2232449,74.2838191 L64.8848223,74.5733828 L64.5253482,74.8743346 L64.1439006,75.1866372 L63.7395568,75.5102534 L63.3113947,75.8451462 L62.8584918,76.1912782 L62.3799258,76.5486123 L61.8747743,76.9171114 L61.342115,77.2967382 L60.7810254,77.6874555 L60.1905834,78.0892262 L59.5698663,78.502013 L58.5800077,79.1417672 L57.9313447,78.539754 L57.2032406,77.8474734 L56.1323963,76.8092615 L54.6784566,75.3750864 L53.1551533,73.8524562 L50.2701771,70.9320751 L45.8440928,66.3961329 L45.8037881,66.3348991 L45.7363095,66.2112933 L45.5952115,65.8961329 L45.5512163,65.8215566 L45.5139354,65.7770047 L45.4861124,65.7535789 L45.4553362,65.7357062 L45.4119583,65.7218704 L45.3622243,65.7183169 L45.3172105,65.7234768 L45.2670141,65.7362451 L45.1809186,65.7706619 L45.0433618,65.8474425 L44.9209548,65.9301945 L44.8292596,65.9982028 L44.6194226,66.1670916 L44.3710208,66.3828542 L44.1570271,66.5776349 L43.8316003,66.8842181 L43.1406972,67.5599027 L42.4118259,68.2926483 L41.0513241,69.6858486 L34.7672181,76.2238478 L34.4917945,76.4964539 L34.336418,76.6347016 C33.9955289,76.9181037 33.7930723,76.9312353 33.4526662,76.7572691 L33.2975262,76.6714997 L33.1206598,76.5642752 L32.682409,76.2912809 L32.4113552,76.1284209 L31.9954064,75.8905925 L31.4683807,75.6010013 L30.9406961,75.3214335 L30.4057642,75.0458412 L28.0617928,73.8622704 L27.3917964,73.5158381 L26.4877468,73.0366509 L25.90488,72.7199912 C24.4947286,71.9546003 23.455691,71.2184771 22.6520307,70.5568056 L22.32162,70.2779221 L22.0176566,70.0089456 L21.7377662,69.7506664 L21.3578732,69.385034 L20.5225659,68.5566659 L20.3412733,68.3871851 L20.1662457,68.2343296 C19.2740313,67.4888858 18.5375993,67.4407942 16.4832878,68.5806084 L16.068827,68.8161827 L15.6190792,69.0822141 L15.1316698,69.3794931 L14.6042245,69.70881 L14.0343689,70.0709552 L13.4197286,70.4667192 L10.8815277,72.1280515 C8.46162106,73.7458542 6.66777851,74.8698371 5.5,75.5 C4.24966125,76.1747145 2.41632792,77.0080479 -1.42108547e-13,78 L-1.42108547e-13,1 L4.50623951,3.25645537 L6.89967071,4.72197763 L8.53166058,5.73614136 L10.7773063,7.14771577 L12.3898608,8.17481609 L13.6096391,8.96272083 L14.4644541,9.52406761 L15.1810209,10.0052583 L15.7310137,10.3888992 L19.9341319,6.6289692 L22.0486409,4.75323811 L23.0259957,3.89761428 L23.904471,3.13995829 L24.5025932,2.63340845 L25.051895,2.17771221 L25.5552907,1.77104673 L26.0156943,1.41158916 L26.4360198,1.09751665 L26.6954103,0.912448727 L26.9391468,0.74620169 L27.2772893,0.530938815 L27.4856685,0.409381035 L27.6814158,0.304753779 L27.7748223,0.258620316 L27.9532406,0.178376152 C28.4435141,-0.0266552174 28.8076707,-0.0440742071 29.1340854,0.0708374286 L29.2759243,0.129943388 L29.442041,0.222050884 L29.6064479,0.335542632 L29.7442501,0.445139188 L29.9706823,0.646116041 L30.6830634,1.32891531 L30.9952329,1.6116923 L31.1656115,1.75768263 L31.4414752,1.98090137 L31.640174,2.13174839 L31.8517118,2.28359291 L32.1949805,2.51204851 L32.5881987,2.75648359 L34.2823952,3.78678492 L34.8663477,4.15103979 C36.5308721,5.2061358 38.2726331,6.47469766 39.8953541,8.4060636 L41.2108018,7.48035582 L42.022547,6.89534282 L42.7845886,6.33593338 L43.4990461,5.80204444 L44.1680387,5.29359299 L44.7936857,4.81049598 L45.6555192,4.13320841 L46.672701,3.31812389 L48.3183137,1.98706006 L48.8236405,1.58987225 L49.279124,1.24786366 L49.5586209,1.05037468 C51.0024425,0.0620179428 51.7271426,0.111165892 53.1794932,1.14113378 L53.4606894,1.3457329 L53.9190963,1.69555239 L55.8505268,3.23022435 L56.5785289,3.80012859 L57.1085821,4.20788288 L57.6768825,4.63779479 L58.2855495,5.08978129 L58.9367024,5.56375934 L59.6324604,6.05964592 L60.3749428,6.57735798 L61.166269,7.1168125 L61.2025881,7.14945177 L63.3980844,8.87965196 L63.8659765,9.23788991 L64.2864903,9.54882797 L64.6642388,9.81320774 L64.8945906,9.9639614 L65.1093524,10.0945718 L65.309891,10.2052587 C66.0207941,10.5748526 66.4724265,10.5470865 66.9679816,10.1707033 L67.1044498,10.0594465 L67.2444627,9.93112271 L67.3893872,9.78595153 L67.5405899,9.62415274 L67.6994377,9.44594605 L68.2355188,8.81507593 L68.6561886,8.31648473 L69.140241,7.75753544 L69.5514525,7.2997709 L69.8510953,6.97664816 L70.1727342,6.63942468 L70.5177359,6.28832017 L70.8874672,5.92355436 L71.2832948,5.54534698 L71.7065854,5.15391777 L71.9289565,4.95331363 L72.3960045,4.54246364 L72.8939325,4.11894113 L73.4241072,3.68296583 L73.7017142,3.46037704 L74.2828218,3.00613453 L74.899593,2.53998855 L75.375058,2.1895244 L75.6595815,1.97127706 L76.036183,1.66474821 L76.3604037,1.38559875 L76.922839,0.889413218 L77.0561576,0.77908045 L77.182462,0.682399474 L77.3036971,0.599957977 C77.7015264,0.349538442 78.0472837,0.346238352 78.6651291,0.688005543 L78.8589695,0.800985666 L79.0710801,0.935257513 L79.3034059,1.09140877 L79.5578919,1.27002713 L79.9854258,1.58136604 L83.176086,3.99284883 L84.6646921,5.09843384 L85.7145433,5.86194126 L86.484422,6.43574329 L87.1641357,6.95362925 L88.7437404,8.17507478 L89.1203744,8.45530832 L89.3817515,8.63969908 L89.6199334,8.79562189 L89.7673725,8.88381688 L89.9068086,8.95945243 L90.039164,9.02256571 L90.1653611,9.07319392 L90.2863223,9.11137424 L90.4029699,9.13714386 C90.5560342,9.16324608 90.7000553,9.15635227 90.8448717,9.11685909 L90.9537868,9.08113303 L91.0917552,9.01934103 L91.2623712,8.92015602 L91.4108766,8.8167249 L91.5351182,8.72043283 L91.6651922,8.61213914 L91.9465268,8.35969558 L93.3681289,6.99187719 L93.8785713,6.51617185 L94.3065746,6.1290925 L94.7767551,5.71618087 L95.1151777,5.42661717 L95.4746518,5.12566543 L95.8560994,4.81336284 L96.2604432,4.48974657 L96.6886053,4.15485383 L97.1415082,3.8087218 L97.6200742,3.45138767 L98.1252257,3.08288862 L98.657885,2.70326184 L99.2189746,2.31254452 L99.8094166,1.91077385 L100.430134,1.49798701 L101.419992,0.858232789 L102.068655,1.46024602 L102.796759,2.15252658 L103.867604,3.19073846 L105.321543,4.62491356 L106.844847,6.1475438 L109.729823,9.06792494 L114.155907,13.6038671 L114.196212,13.6651009 L114.263691,13.7887067 L114.404788,14.1038671 L114.448784,14.1784434 L114.486065,14.2229953 L114.513888,14.2464211 L114.544664,14.2642938 L114.588042,14.2781296 L114.637776,14.2816831 L114.68279,14.2765232 L114.732986,14.2637549 L114.819081,14.2293381 L114.956638,14.1525575 L115.079045,14.0698055 L115.17074,14.0017972 L115.380577,13.8329084 L115.628979,13.6171458 L115.842973,13.4223651 L116.1684,13.1157819 L116.859303,12.4400973 L117.588174,11.7073517 L118.948676,10.3141514 L125.232782,3.77615216 L125.508205,3.50354609 L125.663582,3.36529839 C126.004471,3.0818963 126.206928,3.06876469 126.547334,3.2427309 L126.702474,3.32850032 L126.87934,3.43572477 L127.317591,3.70871907 L127.588645,3.87157908 L128.004594,4.10940754 L128.531619,4.39899867 L129.059304,4.67856646 L129.594236,4.95415875 L131.938207,6.1377296 L132.608204,6.4841619 L133.512253,6.96334906 L134.09512,7.28000884 C135.505271,8.04539968 136.544309,8.78152289 137.347969,9.44319437 L137.67838,9.72207785 L137.982343,9.99105441 L138.262234,10.2493336 L138.642127,10.614966 L139.477434,11.4433341 L139.658727,11.6128149 L139.833754,11.7656704 C140.725969,12.5111142 141.462401,12.5592058 143.516712,11.4193916 L143.931173,11.1838173 L144.380921,10.9177859 L144.86833,10.6205069 L145.395775,10.29119 L145.965631,9.92904476 L146.580271,9.53328084 L149.118472,7.87194849 C155.706157,3.2906495 159.666667,1 161,1 C162.333333,1 165.592435,3.04923859 170.777306,7.14771577 L172.389861,8.17481609 L173.609639,8.96272083 L174.464454,9.52406761 L175.181021,10.0052583 L175.731014,10.3888992 L179.934132,6.6289692 L182.048641,4.75323811 L183.025996,3.89761428 L183.904471,3.13995829 L184.502593,2.63340845 L185.051895,2.17771221 L185.555291,1.77104673 L186.015694,1.41158916 L186.43602,1.09751665 L186.69541,0.912448727 L186.939147,0.74620169 L187.277289,0.530938815 L187.485669,0.409381035 L187.681416,0.304753779 L187.774822,0.258620316 L187.953241,0.178376152 C188.443514,-0.0266552174 188.807671,-0.0440742071 189.134085,0.0708374286 L189.275924,0.129943388 L189.442041,0.222050884 L189.606448,0.335542632 L189.74425,0.445139188 L189.970682,0.646116041 L190.683063,1.32891531 L190.995233,1.6116923 L191.165611,1.75768263 L191.441475,1.98090137 L191.640174,2.13174839 L191.851712,2.28359291 L192.194981,2.51204851 L192.588199,2.75648359 L194.282395,3.78678492 L194.866348,4.15103979 C196.530872,5.2061358 198.272633,6.47469766 199.895354,8.4060636 L201.210802,7.48035582 L202.022547,6.89534282 L202.784589,6.33593338 L203.499046,5.80204444 L204.168039,5.29359299 L204.793686,4.81049598 L205.655519,4.13320841 L206.672701,3.31812389 L208.318314,1.98706006 L208.823641,1.58987225 L209.279124,1.24786366 L209.558621,1.05037468 C211.002442,0.0620179428 211.727143,0.111165892 213.179493,1.14113378 L213.460689,1.3457329 L213.919096,1.69555239 L215.850527,3.23022435 L216.578529,3.80012859 L217.108582,4.20788288 L217.676883,4.63779479 L218.28555,5.08978129 L218.936702,5.56375934 L219.63246,6.05964592 L220.374943,6.57735798 L221.166269,7.1168125 L221.202588,7.14945177 L223.398084,8.87965196 L223.865976,9.23788991 L224.28649,9.54882797 L224.664239,9.81320774 L224.894591,9.9639614 L225.109352,10.0945718 L225.309891,10.2052587 C226.020794,10.5748526 226.472426,10.5470865 226.967982,10.1707033 L227.10445,10.0594465 L227.244463,9.93112271 L227.389387,9.78595153 L227.54059,9.62415274 L227.699438,9.44594605 L228.235519,8.81507593 L228.656189,8.31648473 L229.140241,7.75753544 L229.551452,7.2997709 L229.851095,6.97664816 L230.172734,6.63942468 L230.517736,6.28832017 L230.887467,5.92355436 L231.283295,5.54534698 L231.706585,5.15391777 L231.928957,4.95331363 L232.396005,4.54246364 L232.893932,4.11894113 L233.424107,3.68296583 L233.701714,3.46037704 L234.282822,3.00613453 L234.899593,2.53998855 L235.375058,2.1895244 L235.659581,1.97127706 L236.036183,1.66474821 L236.360404,1.38559875 L236.922839,0.889413218 L237.056158,0.77908045 L237.182462,0.682399474 L237.303697,0.599957977 C237.701526,0.349538442 238.047284,0.346238352 238.665129,0.688005543 L238.858969,0.800985666 L239.07108,0.935257513 L239.303406,1.09140877 L239.557892,1.27002713 L239.985426,1.58136604 L243.176086,3.99284883 L244.664692,5.09843384 L245.714543,5.86194126 L246.484422,6.43574329 L247.164136,6.95362925 L248.74374,8.17507478 L249.120374,8.45530832 L249.381751,8.63969908 L249.619933,8.79562189 L249.767373,8.88381688 L249.906809,8.95945243 L250.039164,9.02256571 L250.165361,9.07319392 L250.286322,9.11137424 L250.40297,9.13714386 C250.556034,9.16324608 250.700055,9.15635227 250.844872,9.11685909 L250.953787,9.08113303 L251.091755,9.01934103 L251.262371,8.92015602 L251.410877,8.8167249 L251.535118,8.72043283 L251.665192,8.61213914 L251.946527,8.35969558 L253.368129,6.99187719 L253.878571,6.51617185 L254.306575,6.1290925 L254.776755,5.71618087 L255.115178,5.42661717 L255.474652,5.12566543 L255.856099,4.81336284 L256.260443,4.48974657 L256.688605,4.15485383 L257.141508,3.8087218 L257.620074,3.45138767 L258.125226,3.08288862 L258.657885,2.70326184 L259.218975,2.31254452 L259.809417,1.91077385 L260.430134,1.49798701 L261.419992,0.858232789 L262.068655,1.46024602 L262.796759,2.15252658 L263.867604,3.19073846 L265.321543,4.62491356 L266.844847,6.1475438 L269.729823,9.06792494 L274.155907,13.6038671 L274.196212,13.6651009 L274.263691,13.7887067 L274.404788,14.1038671 L274.448784,14.1784434 L274.486065,14.2229953 L274.513888,14.2464211 L274.544664,14.2642938 L274.588042,14.2781296 L274.637776,14.2816831 L274.68279,14.2765232 L274.732986,14.2637549 L274.819081,14.2293381 L274.956638,14.1525575 L275.079045,14.0698055 L275.17074,14.0017972 L275.380577,13.8329084 L275.628979,13.6171458 L275.842973,13.4223651 L276.1684,13.1157819 L276.859303,12.4400973 L277.588174,11.7073517 L278.948676,10.3141514 L285.232782,3.77615216 L285.508205,3.50354609 L285.663582,3.36529839 C286.004471,3.0818963 286.206928,3.06876469 286.547334,3.2427309 L286.702474,3.32850032 L286.87934,3.43572477 L287.317591,3.70871907 L287.588645,3.87157908 L288.004594,4.10940754 L288.531619,4.39899867 L289.059304,4.67856646 L289.594236,4.95415875 L291.938207,6.1377296 L292.608204,6.4841619 L293.512253,6.96334906 L294.09512,7.28000884 C295.505271,8.04539968 296.544309,8.78152289 297.347969,9.44319437 L297.67838,9.72207785 L297.982343,9.99105441 L298.262234,10.2493336 L298.642127,10.614966 L299.477434,11.4433341 L299.658727,11.6128149 L299.833754,11.7656704 C300.725969,12.5111142 301.462401,12.5592058 303.516712,11.4193916 L303.931173,11.1838173 L304.380921,10.9177859 L304.86833,10.6205069 L305.395775,10.29119 L305.965631,9.92904476 L306.580271,9.53328084 L309.118472,7.87194849 L312.857252,5.41367486 C314.194466,4.47888911 315.408715,3.67433083 316.5,3 C317.591285,2.32566917 318.757951,1.65900251 320,1 L320,78 Z"/>
</svg>
