<svg width="576" height="224" viewBox="0 0 576 224" fill="none" xmlns="http://www.w3.org/2000/svg">
<path fill-rule="evenodd" clip-rule="evenodd" d="M467.568 0L467.568 99.5691C478.943 83.1466 493.652 75.8876 508.185 74.8775C508.867 74.7955 509.572 74.7535 510.3 74.7535L511.052 74.7585L511.772 74.7535C513.087 74.7535 514.215 74.8361 515.172 74.9908C533.175 76.7932 546.319 88.926 550.567 113.744L550.713 114.625L560.191 173.578C562.862 190.191 566.636 202.766 575.25 218.632L576 220H539.523C534.55 207.626 531.081 192.066 528.457 176.14L519.434 120.036C516.733 103.233 509.578 95.2589 496.285 95.2589C495.981 95.2589 495.698 95.2243 495.436 95.1581C494.849 95.2238 494.278 95.2589 493.728 95.2589C486.606 95.2589 477.397 97.8833 467.569 107.919L467.568 173.211L467.578 176.047C467.689 190.992 468.798 203.194 474.458 218.589L474.987 220H428C434.131 203.905 435.299 191.402 435.41 175.967L435.419 173.211L435.418 65.2707L435.397 61.1387L435.362 58.3246C435.11 42.4239 433.845 27.3387 428.309 15.1831C441.195 11.6605 452.97 7.02548 465.476 1.0146L467.568 0ZM60.1446 19.9999C57.3687 23.7488 56.4434 30.9341 56.4434 39.0566C56.4434 47.2572 57.5277 56.5561 59.1881 65.1514L59.5277 66.8605L83.2771 180.576L120.906 55.614C116.147 42.0579 111.675 31.4066 104.725 21.1393L103.942 19.9999H163.778C160.386 24.3736 158.227 30.6216 158.227 39.369C158.227 46.2669 159.532 54.4868 161.902 64.2722L162.545 66.8605L192.154 181.201L217.754 66.8605C219.605 59.3628 220.53 50.3031 220.53 42.1806C220.53 33.1108 219.375 24.9187 216.784 20.4357L216.52 19.9999H256L254.742 21.508C244.783 33.5822 237.273 46.0042 231.957 67.1179L231.634 68.4226L194.005 224H173.648L127.383 76.2327L81.1181 224H61.9952L22.2072 68.4226C17.6994 49.8545 11.4346 34.549 0.845046 21.061L0 19.9999H60.1446ZM380.696 36V75.652H416L414.478 85.2179H380.696L380.7 175.171L380.722 176.514C380.917 184.236 382.551 197.154 396.217 197.154C402.609 197.154 408.391 194.377 416 188.822C416 206.411 400.783 224 378.87 224C360.203 224 349.28 210.411 349.047 182.935L349.044 85.2179H332L333.522 75.652H349.044L349.009 72.9259L348.957 70.7857C348.739 63.5635 348.158 57.0481 347.73 52.242L347.729 52.2398L347.729 52.2387L347.727 52.2125L347.715 52.0843C347.646 51.3041 347.581 50.57 347.522 49.8863C350.35 48.83 353.141 47.8659 355.901 46.9128C363.975 44.1241 371.777 41.4296 379.416 36.7957L380.696 36ZM312.641 174.605L312.64 60L310.12 61.1561C297.519 66.8481 284.9 71.2329 272 75.3424C278.377 88.389 279.24 105.032 279.346 121.549L279.357 124.155L279.36 173.346L279.355 175.844C279.281 191.429 278.384 202.748 272 220H320L319.507 218.65C313.73 202.595 312.767 191.625 312.653 177.066L312.641 174.605ZM291.866 50.8444C303.409 46.8268 312 33.8172 312 20.9795C312 8.1418 303.409 1.11194 291.866 5.12953C280.054 9.24055 272 22.0632 272 34.9009C272 47.7387 280.054 54.9554 291.866 50.8444Z" fill="#1F2638"/>
</svg>
