<svg xmlns="http://www.w3.org/2000/svg" width="960" height="360" viewBox="0 0 960 360">
  <path fill="#121621" d="M210.993493,315.354461 C221.56996,312.255337 230.593046,307.800616 238.062751,301.990296 C245.532456,296.179976 247.817835,288.472223 244.918887,278.867036 C243.270466,273.405264 240.18,269.886404 235.647488,268.310458 C231.114976,266.734511 226.084464,266.380702 220.555953,267.249029 C218.778931,267.528135 216.876086,267.882937 214.847418,268.313437 L213.476331,268.611651 L213.476331,268.611651 L212.067964,268.932294 C211.830129,268.987604 211.590741,269.043848 211.3498,269.101027 L209.885511,269.455313 L209.885511,269.455313 L208.383941,269.832028 C208.130573,269.896683 207.875651,269.962273 207.619176,270.028797 L206.061684,270.439155 C205.536307,270.57968 205.004716,270.723942 204.466912,270.871942 L202.834858,271.327159 C202.559742,271.404897 202.283073,271.48357 202.004851,271.563177 L200.316876,272.052037 L196.589627,273.144198 C189.899693,275.104487 183.9661,276.296505 178.788848,276.720251 C173.611595,277.143998 170.530337,275.723617 169.545074,272.459109 C168.427179,268.755148 170.17218,265.288513 174.780077,262.059202 C179.387973,258.829891 185.387313,256.13241 192.778097,253.966757 C199.607534,252.238914 205.687552,251.704383 211.018152,252.363164 C216.218738,253.005876 219.459552,255.247197 220.740596,259.087126 L220.833,259.378118 L237.557834,254.477396 C235.492571,247.634485 231.522921,243.04079 225.648885,240.696311 C219.774849,238.351833 213.578911,237.468298 207.06107,238.045706 C200.543228,238.623115 194.417193,239.751943 188.682964,241.432191 C177.915357,244.587322 168.574119,248.964442 160.659252,254.563548 C152.744384,260.162655 150.255372,267.82758 153.192214,277.558325 C154.992215,283.52233 158.209275,287.34575 162.843395,289.028585 C167.477516,290.71142 172.67033,291.086002 178.421839,290.152331 C178.781309,290.093977 179.147215,290.032268 179.519559,289.967205 L180.655901,289.761954 C180.84851,289.726068 181.042729,289.689344 181.238556,289.651781 L182.432833,289.416341 C182.635098,289.375424 182.838972,289.333668 183.044455,289.291074 L184.296667,289.025445 C184.720508,288.933548 185.150786,288.838296 185.587501,288.739691 L186.916959,288.433811 C187.141754,288.381154 187.368158,288.327658 187.596171,288.273324 L188.983563,287.937256 C189.218014,287.879567 189.454074,287.82104 189.691743,287.761674 L191.137069,287.395418 L191.137069,287.395418 L192.621019,287.009035 L192.621019,287.009035 L194.143591,286.602527 L194.143591,286.602527 L195.704787,286.175894 L195.704787,286.175894 L197.304605,285.729135 C197.57446,285.652998 197.845925,285.576022 198.118998,285.498208 L199.776751,285.02126 L199.776751,285.02126 L202.722662,284.159148 L205.033558,283.526163 L205.033558,283.526163 L206.507168,283.132668 L206.507168,283.132668 L207.927188,282.761969 L207.927188,282.761969 L209.293618,282.414066 L209.293618,282.414066 L210.606459,282.088959 L210.606459,282.088959 L211.865711,281.786649 L211.865711,281.786649 L213.071372,281.507134 C213.464328,281.417762 213.848352,281.332189 214.223444,281.250415 C217.411729,280.55534 220.447652,280.331979 223.331213,280.580331 C226.111789,280.819814 227.833621,281.87783 228.496708,283.754378 L228.594449,284.060421 C229.781262,288.222504 228.31912,291.87958 224.208023,295.031649 C220.096926,298.183718 214.791982,300.711893 208.293189,302.616174 C204.024374,303.867025 199.975955,304.814137 196.147931,305.457511 C192.319908,306.100884 188.555964,305.922592 184.8561,304.922634 C181.268353,303.952978 178.858902,301.593954 177.627747,297.845564 L177.515778,297.490082 L160.780636,302.701314 C162.8459,309.544225 166.895191,314.114583 172.928511,316.412388 C178.961831,318.710193 185.348911,319.53772 192.08975,318.894968 C198.830589,318.252217 205.131837,317.072048 210.993493,315.354461 Z M293.811458,296.488279 C300.448139,295.489785 306.253518,293.35751 311.227596,290.091456 C316.201673,286.825401 319.861413,282.779824 322.206814,277.954724 C324.552216,273.129625 325.308536,268.030126 324.475775,262.656226 C323.632981,257.217581 321.361638,252.540469 317.661746,248.624888 C313.961854,244.709308 309.243606,241.924206 303.507,240.269582 C297.770395,238.614958 291.583751,238.286893 284.947071,239.285387 C278.507519,240.254222 272.704648,242.402683 267.538458,245.730769 C262.372268,249.058855 258.452198,253.160163 255.778248,258.034693 C253.104298,262.909222 252.183703,268.033437 253.016464,273.407336 C253.839191,278.71649 256.264775,283.304141 260.293216,287.170291 C264.321656,291.036441 269.32168,293.795714 275.293286,295.448109 C281.264892,297.100505 287.437616,297.447228 293.811458,296.488279 Z M292.284634,285.984634 C288.867729,286.49871 285.500846,286.359271 282.183987,285.566317 C278.867127,284.773363 275.995925,283.167988 273.570382,280.750191 C271.144839,278.332394 269.616019,275.084003 268.983924,271.005019 C268.351828,266.926035 268.827155,263.37612 270.409904,260.355272 C271.992653,257.334424 274.244301,254.941748 277.164847,253.177244 C280.085393,251.412739 283.254119,250.273449 286.671024,249.759373 C292.05922,248.948715 296.859318,249.766972 301.071319,252.214144 C305.283319,254.661316 307.860882,258.927953 308.804009,265.014056 C309.747136,271.100159 308.576737,275.914116 305.292814,279.455928 C302.00889,282.99774 297.67283,285.173976 292.284634,285.984634 Z M376.881436,289.2169 C381.999222,289.146203 386.534121,287.822633 390.486132,285.246189 C394.438143,282.669746 397.495984,279.155866 399.659656,274.70455 C401.733176,270.438706 402.808567,265.750506 402.885832,260.63995 L402.890249,259.970961 L402.884658,259.578022 C402.751103,254.863679 401.574455,250.425755 399.354715,246.264251 C397.134974,242.102747 394.012991,238.772489 389.988764,236.273477 C385.964538,233.774466 381.327067,232.561226 376.076351,232.63376 C364.860109,232.7887 356.304285,235.523637 350.408879,240.838569 L350.071711,241.148063 L349.713895,216 L333.762353,216.220354 L334.791072,288.521034 L348.648975,288.329601 L349.856981,282.122917 C355.6447,287.086667 364.652852,289.451328 376.881436,289.2169 Z M368.263214,279.215798 C364.807046,279.263541 361.737554,278.454409 359.054736,276.788401 C356.371919,275.122393 354.263214,272.924434 352.72862,270.194523 C351.279282,267.616273 350.495238,264.91198 350.376486,262.081643 L350.362436,261.580863 L350.361038,261.482629 C350.312584,258.077162 350.999668,254.972672 352.422291,252.169159 C353.844914,249.365645 355.890722,247.143047 358.559715,245.501363 C361.228709,243.85968 364.291289,243.014966 367.747457,242.967223 C371.668877,242.913053 375.037927,243.750798 377.854606,245.480459 C380.671285,247.21012 382.779757,249.391707 384.180023,252.02522 C385.580289,254.658733 386.333222,257.350315 386.438823,260.099966 C386.417085,263.244392 385.745453,266.266791 384.423925,269.167161 C383.102397,272.067532 381.075534,274.453625 378.343338,276.325441 C375.611141,278.197257 372.2511,279.160709 368.263214,279.215798 Z M443.780868,294.83167 C450.963563,295.768667 457.334712,295.509679 462.894315,294.054706 C468.453919,292.599733 472.834443,290.313753 476.035888,287.196765 C479.11876,284.195222 480.964032,280.80249 481.571703,277.018568 L481.636326,276.580226 L465.920064,274.530008 C465.623438,276.737615 464.518377,278.724141 462.604879,280.489586 C460.691382,282.255031 458.202034,283.565467 455.136837,284.420892 C452.071639,285.276317 448.792789,285.476228 445.300286,285.020624 C441.082924,284.470461 437.600631,283.190342 434.853405,281.180269 C432.10618,279.170195 430.118478,276.747178 428.890301,273.911218 C427.730356,271.232811 427.21676,268.417732 427.349514,265.465979 L427.37965,264.943663 L482.238302,272.100083 L482.513117,270.0548 C483.214957,264.332399 482.40188,259.155635 480.073884,254.524509 C477.745888,249.893383 474.136024,246.069533 469.244293,243.052959 C464.352561,240.036386 458.44714,238.076793 451.528031,237.174182 C444.806611,236.297359 438.535513,236.685018 432.714737,238.337157 C426.893962,239.989297 422.107619,242.800429 418.355708,246.770555 C414.603798,250.740681 412.343974,255.582646 411.576237,261.296452 C410.817225,266.945327 411.774207,272.173897 414.447184,276.982163 C417.12016,281.790428 421.046419,285.754654 426.22596,288.87484 C431.405501,291.995026 437.257137,293.980636 443.780868,294.83167 Z M466.830544,261.76558 L429.665043,256.917266 C431.488977,253.323275 434.1,250.608257 437.498113,248.772212 C440.896226,246.936167 445.198185,246.357698 450.403991,247.036806 C455.74159,247.733106 459.709613,249.39041 462.308062,252.008719 C464.80657,254.526323 466.296429,257.630076 466.77764,261.319978 L466.830544,261.76558 Z M500.462682,302.580427 L506.073707,280.975149 C507.045955,277.231504 508.054464,274.20687 509.099233,271.90125 C510.144003,269.595629 511.705784,267.809107 513.784577,266.541683 C515.783417,265.323007 518.428802,265.095558 521.720731,265.859337 L522.118867,265.955749 L533.420416,268.80535 L536.831523,255.670864 C526.349581,254.087993 518.059422,255.103039 511.961047,258.716003 L511.590415,258.940451 L511.905602,250.197259 L498.478975,246.811836 L485.007572,298.683536 L500.462682,302.580427 Z M576.488132,327.708795 L585.338156,308.147179 C587.124399,304.198963 588.999334,300.899232 590.962961,298.247987 C592.926588,295.596742 595.469724,293.755788 598.592369,292.725124 C601.715014,291.694461 605.431615,292.125817 609.742173,294.019193 C613.931306,295.859234 616.619829,298.241275 617.807742,301.165314 C618.995655,304.089354 619.243629,307.120425 618.551664,310.258528 C617.902947,313.200499 616.797133,316.4459 615.234221,319.99473 L614.915544,320.708541 L605.903135,340.629086 L620.474035,347.029231 L629.608233,326.839489 C630.066822,325.825848 630.496516,324.831944 630.897313,323.857779 L631.3644,322.698254 C634.914598,313.689527 635.911546,306.424842 634.355245,300.904197 C632.567155,294.561329 628.212521,289.869861 621.291344,286.829792 C611.638123,282.589697 603.238797,282.00887 596.093366,285.087312 L595.690247,285.265472 L598.613191,278.804754 L584.042291,272.40461 L561.917233,321.308651 L576.488132,327.708795 Z M656.149776,369.849362 C661.919355,373.231842 667.777752,375.218351 673.724966,375.808889 C679.67218,376.399428 685.106764,375.565293 690.028717,373.306486 C694.95067,371.047679 698.82217,367.582384 701.643215,362.9106 C704.49825,358.182529 705.759014,353.148555 705.425509,347.808677 C705.092003,342.468799 703.243207,337.364702 699.879119,332.496386 C696.515031,327.62807 691.948197,323.502671 686.178618,320.120191 C680.580412,316.838181 674.713518,314.865743 668.577936,314.202879 C662.442354,313.540014 656.770775,314.25426 651.563199,316.345618 C646.355623,318.436975 642.341312,321.818546 639.520267,326.49033 C636.733209,331.105827 635.649245,336.16724 636.268373,341.674567 C636.887501,347.181895 638.97058,352.442396 642.517609,357.45607 C646.064639,362.469744 650.608694,366.600841 656.149776,369.849362 Z M661.7416,360.781175 C658.771123,359.0397 656.260565,356.824783 654.209924,354.136425 C652.159284,351.448067 650.976573,348.411149 650.661791,345.025672 C650.34701,341.640194 651.260257,338.174429 653.401532,334.628376 C655.542808,331.082323 658.198354,328.638 661.36817,327.295407 C664.537986,325.952814 667.819487,325.514037 671.212673,325.979076 C674.605859,326.444116 677.78769,327.547373 680.758167,329.288848 C685.44238,332.03502 688.622304,335.671231 690.297938,340.19748 C691.973572,344.723729 691.213929,349.632322 688.01901,354.923258 C684.824091,360.214194 680.816846,363.199791 675.997275,363.880048 C671.177705,364.560305 666.425813,363.527347 661.7416,360.781175 Z M711.779822,402.914989 L736.311758,369.110804 L744.746689,375.053817 L751.822094,365.304147 L743.387162,359.361134 L755.624133,342.498999 L737.253768,340.788029 L730.410344,350.218038 L721.569887,343.989303 L714.494482,353.738973 L723.33494,359.967708 L698.803004,393.771893 L711.779822,402.914989 Z M787.548978,456.719005 C791.823575,459.492794 796.330072,460.907413 801.06847,460.962862 C805.806868,461.018311 810.339815,459.803304 814.667312,457.31784 C818.814497,454.935938 822.376613,451.652209 825.353661,447.466652 L825.738654,446.915596 L825.958011,446.587396 C828.534784,442.612982 830.09097,438.290001 830.626568,433.618454 C831.162166,428.946907 830.477449,424.463789 828.572417,420.1691 C826.667384,415.87441 823.522055,412.304148 819.136429,409.458312 C809.768138,403.379222 801.130343,400.907066 793.223045,402.041846 L792.767666,402.111315 L806.806533,381.106563 L793.483113,372.460987 L753.121369,432.849649 L764.69609,440.360494 L769.233496,435.893809 C771.192636,443.203697 777.297796,450.145429 787.548978,456.719005 Z M786.119362,443.674911 C783.232621,441.801703 781.154239,439.433536 779.884218,436.57041 C778.614196,433.707284 778.1224,430.721762 778.408831,427.613844 C778.679349,424.678589 779.572157,422.007235 781.087256,419.599782 L781.415925,419.095627 C783.317022,416.251233 785.655117,414.06292 788.430212,412.530686 C791.205306,410.998453 794.164871,410.291733 797.308907,410.410527 C800.452943,410.529321 803.468332,411.525322 806.355073,413.39853 C809.630414,415.523901 811.940329,418.081523 813.28482,421.071396 C814.62931,424.061268 815.130246,427.033115 814.787626,429.986936 C814.445006,432.940758 813.533703,435.584377 812.053716,437.917795 C810.243344,440.507366 807.964826,442.63631 805.218164,444.304629 C802.471501,445.972947 799.434416,446.825422 796.106907,446.862054 C792.779398,446.898687 789.450217,445.836306 786.119362,443.674911 Z M846.14302,490.788305 C852.130852,493.779931 858.11181,495.372862 864.085895,495.567097 C870.05998,495.761333 875.425149,494.56818 880.181401,491.987638 C884.937652,489.407097 888.563312,485.692572 891.058378,480.844063 C893.583506,475.937139 894.497065,470.830883 893.799054,465.525296 C893.101043,460.219709 890.907315,455.249998 887.217869,450.616164 C883.528423,445.98233 878.689785,442.1696 872.701953,439.177974 C866.891977,436.275208 860.903504,434.696881 854.736532,434.442993 C848.56956,434.189105 842.959734,435.278382 837.907055,437.710823 C832.854376,440.143264 829.080503,443.783739 826.585437,448.632248 C824.120431,453.422341 823.385147,458.544231 824.379585,463.997919 C825.374024,469.451606 827.8122,474.561806 831.694114,479.328518 C835.576028,484.09523 840.39233,487.915159 846.14302,490.788305 Z M851.101838,481.36938 C848.018993,479.829137 845.362637,477.785986 843.132768,475.239925 C840.902899,472.693865 839.515143,469.742398 838.9695,466.385524 C838.423857,463.02865 839.097958,459.510116 840.991804,455.829923 C842.88565,452.149729 845.367958,449.534607 848.438729,447.984557 C851.509499,446.434507 854.753525,445.7788 858.170805,446.017438 C861.588085,446.256075 864.838148,447.145515 867.920992,448.685758 C872.7824,451.114603 876.20382,454.531364 878.185253,458.936041 C880.166686,463.340717 879.744533,468.288597 876.918795,473.779679 C874.093057,479.270761 870.299148,482.515693 865.537069,483.514475 C860.774989,484.513257 855.963246,483.798225 851.101838,481.36938 Z M899.298052,513.027186 L907.641257,492.296222 C909.086923,488.704072 910.476128,485.829669 911.808872,483.673013 C913.141615,481.516357 914.920476,479.939146 917.145454,478.941378 C919.284856,477.981987 921.938172,478.086532 925.105403,479.255014 L925.487938,479.400339 L936.332141,483.637499 L941.404222,471.034534 C931.210185,468.156193 922.856314,468.128396 916.342608,470.951141 L915.946109,471.127524 L917.382701,462.49409 L904.499417,457.4602 L884.468372,507.23278 L899.298052,513.027186 Z M962.799716,471.431726 L966.668106,460.171824 L951.55731,455.131636 L947.68892,466.391538 L962.799716,471.431726 Z M943.010184,529.034036 L961.872581,474.130381 L946.761785,469.090193 L927.899387,523.993848 L943.010184,529.034036 Z M965.86389,535.273407 L971.43774,514.572303 C972.562737,510.394099 973.880154,506.842172 975.38999,503.916523 C976.899826,500.990875 979.112792,498.774188 982.028888,497.266463 C984.944984,495.758739 988.683859,495.601112 993.245512,496.793583 C997.678667,497.952463 1000.71802,499.882 1002.36358,502.582196 C1004.00914,505.282391 1004.74407,508.235812 1004.56837,511.44246 C1004.40366,514.448692 1003.83676,517.826238 1002.86766,521.575097 L1002.66847,522.32982 L996.992352,543.41076 L1012.41202,547.441647 L1018.16485,526.075829 C1021.28416,514.490808 1021.44837,505.707733 1018.65748,499.726605 C1015.86658,493.745477 1010.80896,489.797578 1003.48462,487.882906 C993.269089,485.212444 984.883139,485.957655 978.326772,490.11854 L977.95761,490.35771 L979.798515,483.520648 L964.378844,479.489761 L950.444219,531.24252 L965.86389,535.273407 Z M1051.60792,575.307835 C1056.33115,576.06869 1061.07426,576.202274 1065.83726,575.708587 C1070.60026,575.2149 1074.86276,573.678286 1078.62477,571.098747 C1082.26922,568.599818 1084.63829,564.930062 1085.73201,560.089479 L1085.83387,559.617381 L1094.60136,506.775763 L1080.62847,504.524901 L1077.85986,510.250921 C1073.26228,504.267417 1065.13105,500.502043 1053.46615,498.954799 C1048.34932,498.130539 1043.58632,498.624226 1039.17716,500.43586 C1034.76799,502.247493 1031.09429,505.10672 1028.15604,509.013539 C1025.33532,512.764086 1023.43308,517.151889 1022.44931,522.176948 L1022.33112,522.8084 L1022.21851,523.487099 C1021.58825,528.097537 1022.06154,532.653462 1023.63837,537.154874 C1025.2152,541.656286 1027.77621,545.503259 1031.32141,548.695792 C1034.8666,551.888325 1039.16482,553.891437 1044.21605,554.705129 C1055.35079,556.4988 1064.14637,555.392206 1070.6028,551.385347 L1070.97269,551.150964 L1070.15224,556.095776 C1069.41223,560.555802 1067.29529,563.26761 1063.8014,564.231197 C1060.50161,565.141252 1057.20944,565.371773 1053.92488,564.92276 L1053.34533,564.836469 L1049.09802,564.251827 C1048.3506,564.131427 1047.63602,564.001378 1046.95425,563.86168 L1046.15189,563.68941 C1046.02079,563.659927 1045.891,563.630057 1045.76253,563.599802 L1045.00744,563.413637 C1038.8463,561.823666 1035.96769,559.26875 1036.3716,555.748891 L1036.39977,555.536541 L1020.26208,552.936954 C1019.37192,558.301913 1020.44508,562.489911 1023.48156,565.500948 C1026.51804,568.511984 1030.19368,570.613904 1034.50847,571.806707 L1035.49011,572.07135 L1035.49011,572.07135 L1036.51735,572.335145 C1036.69236,572.379041 1036.86926,572.422901 1037.04807,572.466725 L1038.1437,572.729248 L1038.1437,572.729248 L1039.28494,572.990923 C1039.47894,573.034465 1039.67485,573.077972 1039.87265,573.121443 L1041.08228,573.381846 C1041.49309,573.468505 1041.9115,573.555024 1042.33751,573.6414 L1043.63833,573.900107 L1043.63833,573.900107 L1044.98475,574.157966 L1044.98475,574.157966 L1046.37677,574.414976 L1046.37677,574.414976 L1047.81439,574.671139 L1047.81439,574.671139 L1049.2976,574.926453 L1049.2976,574.926453 L1050.82642,575.18092 C1051.08502,575.22326 1051.34552,575.265565 1051.60792,575.307835 Z M1054.05636,545.937236 C1048.48033,545.039004 1044.39138,542.688 1041.78952,538.884222 C1039.18767,535.080444 1038.25013,530.582465 1038.97691,525.390285 C1039.58947,522.104312 1040.86166,519.206649 1042.79347,516.697299 C1044.72528,514.187948 1047.23566,512.352497 1050.32459,511.190945 C1053.41353,510.029392 1056.92601,509.765639 1060.86203,510.399685 C1064.07645,510.917489 1066.79601,512.185148 1069.0207,514.202661 C1071.2454,516.220175 1072.83206,518.632652 1073.78068,521.44009 C1074.67349,524.082385 1074.93716,526.740907 1074.57167,529.415655 L1074.49577,529.91736 L1074.44751,530.208231 C1073.43938,536.284209 1071.10083,540.636053 1067.43186,543.263763 C1063.76289,545.891472 1059.30439,546.78263 1054.05636,545.937236 Z M1110.4413,562.352939 L1112,547.202724 L1094.93785,545.498442 L1093.37915,560.648656 L1110.4413,562.352939 Z" transform="translate(-152 -216)"/>
</svg>
