<svg xmlns="http://www.w3.org/2000/svg" width="144" height="56" viewBox="0 0 144 56">
  <path fill="#121621" d="M255.173913,89 L255.173913,98.9130078 L264,98.9130078 L263.619565,101.304473 L255.173913,101.304473 L255.175037,123.792842 L255.180538,124.128509 C255.229343,126.058953 255.637693,129.288469 259.054348,129.288469 C260.652174,129.288469 262.097826,128.594173 264,127.205581 C264,131.60279 260.195652,136 254.717391,136 C250.050725,136 247.320004,132.602773 247.261819,125.733636 L247.26087,101.304473 L243,101.304473 L243.380435,98.9130078 L247.26087,98.9130078 L247.25236,98.2314868 L247.239122,97.6964375 C247.175242,95.5756193 246.986046,93.6986279 246.880435,92.471572 C249.656087,91.4347562 252.291496,90.7533366 254.853978,89.1989357 L255.173913,89 Z M175.036145,85 C174.342169,85.9372129 174.110843,87.7335375 174.110843,89.7641654 C174.110843,91.8143185 174.381928,94.1390458 174.797026,96.287874 L174.881928,96.7151608 L180.819277,125.143951 L190.226506,93.9035222 C189.036833,90.5144935 187.918859,87.8516853 186.181201,85.2848419 L185.985542,85 L200.944578,85 C200.096386,86.093415 199.556627,87.6554364 199.556627,89.8422665 C199.556627,91.5667381 199.882949,93.6217335 200.475552,96.068069 L200.636145,96.7151608 L208.038554,125.300153 L214.438554,96.7151608 C214.901205,94.8407351 215.13253,92.575804 215.13253,90.5451761 C215.13253,88.2777256 214.843674,86.2297058 214.196078,85.1089577 L214.13012,85 L224,85 L223.685572,85.3770186 C221.195708,88.3955819 219.318368,91.5010632 217.989193,96.7794955 L217.908434,97.1056662 L208.501205,136 L203.412048,136 L191.845783,99.058193 L180.279518,136 L175.498795,136 L165.551807,97.1056662 C164.424838,92.4636589 162.858639,88.6372712 160.211261,85.2652729 L160,85 L175.036145,85 Z M238.16,95 L238.160321,123.651172 L238.163274,124.26647 C238.191759,127.906186 238.432464,130.648721 239.876829,134.662527 L240,135 L228,135 C229.596,130.686888 229.8202,127.857339 229.83863,123.961037 L229.84,123.336595 L229.83932,111.038795 L229.836534,110.387223 C229.810027,106.258072 229.594233,102.097256 228,98.8356164 C231.225,97.8082192 234.379687,96.712023 237.52998,95.2890319 L238.16,95 Z M276.891928,80 L276.89204,104.89228 C279.735685,100.786638 283.413053,98.9718919 287.046324,98.7193858 C287.216767,98.698876 287.393117,98.6883803 287.574951,98.6883803 L287.763037,98.6896207 L287.943066,98.6883803 C288.271658,98.6883803 288.553759,98.709026 288.793098,98.7476969 C293.293741,99.1982884 296.579812,102.231498 297.641749,108.435977 L297.678304,108.656276 L300.04768,123.394522 C300.715379,127.547811 301.659072,130.691621 303.812441,134.65797 L304,135 L294.880879,135 C293.6374,131.906515 292.770176,128.016547 292.114299,124.035029 L289.858591,110.009062 C289.183262,105.808306 287.394433,103.814727 284.071364,103.814727 C283.995214,103.814727 283.924449,103.806085 283.859033,103.789512 C283.712149,103.805956 283.569489,103.814727 283.432035,103.814727 C281.6516,103.814727 279.349214,104.470816 276.892247,106.979627 L276.891928,123.302817 L276.89442,124.011747 C276.922154,127.747924 277.199513,130.798514 278.614618,134.647243 L278.746664,135 L267,135 C268.532734,130.976135 268.824683,127.850526 268.852391,123.991725 L268.854736,123.302817 L268.854456,96.3176794 L268.849172,95.2846682 L268.840502,94.5811545 C268.777426,90.6059614 268.461303,86.834664 267.077281,83.7957746 C270.298665,82.9151223 273.24261,81.7563692 276.369081,80.2536495 L276.891928,80 Z M238,85.2448813 C238,88.4543128 235.852349,91.706693 232.966443,92.7110898 C230.013423,93.7388447 228,91.9346645 228,88.725233 C228,85.5158016 230.013423,82.3101375 232.966443,81.2823826 C235.852349,80.2779858 238,82.0354498 238,85.2448813 Z" transform="translate(-160 -80)"/>
</svg>
